<svg version="1.0" xmlns="http://www.w3.org/2000/svg" width="36.000000pt" height="36.000000pt" viewBox="0 0 96.000000 96.000000" preserveAspectRatio="xMidYMid meet">
    <g transform="translate(0.000000,96.000000) scale(0.100000,-0.100000)" fill="inherit" stroke="none">
        <path d="M295 821 l-170 -58 0 -263 0 -263 75 -33 75 -33 3 55 3 54 39 -20
        c39 -20 40 -22 40 -74 l0 -53 60 -26 60 -27 178 79 177 79 0 262 0 263 -175
        59 c-96 32 -179 58 -185 57 -5 0 -86 -26 -180 -58z m330 -74 l130 -44 3 -91 3
        -91 -41 -21 -40 -20 0 44 0 45 -60 -26 c-58 -26 -60 -27 -60 -64 0 -35 -4 -41
        -40 -59 l-40 -20 0 40 c0 39 -1 41 -56 65 -31 14 -58 25 -60 25 -2 0 -4 -20
        -4 -45 l0 -45 -40 20 c-38 19 -40 23 -40 65 0 43 -2 46 -40 61 l-41 17 3 50 3
        50 125 43 c69 23 134 43 145 43 11 1 79 -19 150 -42z m-345 -327 l0 -60 -40
        20 c-40 20 -40 20 -40 80 l0 60 40 -20 c40 -20 40 -20 40 -80z m400 -60 c0
        -36 -3 -41 -40 -60 l-40 -20 0 40 c0 36 4 41 38 59 20 11 38 20 40 21 1 0 2
        -18 2 -40z m80 -40 c0 -36 -3 -41 -40 -60 l-40 -20 0 40 c0 36 4 41 38 59 20
        11 38 20 40 21 1 0 2 -18 2 -40z"/>
    </g>
</svg>
