<svg version="1.0" xmlns="http://www.w3.org/2000/svg" width="50.000000pt" height="50.000000pt" viewBox="0 0 512.000000 512.000000" preserveAspectRatio="xMidYMid meet">
    <g transform="translate(0.000000,512.000000) scale(0.100000,-0.100000)" fill="inherit" stroke="none">
    <path d="M600 5104 c-243 -52 -448 -220 -541 -444 -61 -146 -59 -76 -59 -1718
    0 -1450 1 -1501 19 -1523 26 -32 86 -32 112 0 18 22 19 72 19 1515 0 1273 2
    1501 15 1561 47 225 235 413 460 460 105 22 3765 22 3870 0 225 -47 413 -235
    460 -460 22 -105 22 -3765 0 -3870 -47 -225 -235 -413 -460 -460 -105 -22
    -3765 -22 -3870 0 -225 47 -413 235 -460 460 -11 50 -15 139 -15 316 0 234 -1
    248 -21 273 -28 36 -80 36 -108 0 -20 -25 -21 -39 -21 -281 0 -279 9 -355 59
    -473 73 -174 227 -328 401 -401 148 -62 37 -59 2100 -59 1675 0 1889 2 1958
    16 296 60 526 290 586 586 14 69 16 283 16 1958 0 1675 -2 1889 -16 1958 -61
    296 -290 525 -586 586 -69 14 -281 16 -1965 15 -1579 0 -1899 -3 -1953 -15z"/>
    <path d="M924 4406 c-54 -17 -125 -67 -163 -113 -54 -65 -73 -133 -79 -270
    l-4 -122 -55 -7 c-75 -9 -183 -65 -229 -117 -20 -23 -48 -67 -63 -97 -23 -48
    -26 -68 -26 -155 0 -93 2 -104 32 -160 59 -112 171 -192 285 -202 l58 -6 2
    -1091 3 -1091 24 -60 c29 -71 103 -150 176 -185 43 -22 64 -25 150 -25 90 0
    105 3 153 28 69 36 129 98 161 167 l26 55 3 1101 2 1101 60 6 c152 13 276 122
    316 277 53 207 -86 415 -303 452 l-72 12 -3 130 c-3 117 -6 137 -29 187 -33
    70 -91 130 -161 165 -43 22 -69 28 -138 31 -52 2 -101 -2 -126 -11z m189 -150
    c39 -17 92 -71 106 -109 6 -16 11 -78 11 -138 l0 -109 -201 0 -201 0 4 113 c5
    137 24 182 95 228 53 33 129 39 186 15z m384 -533 c155 -84 161 -296 10 -383
    l-52 -30 -418 0 c-355 0 -423 2 -455 16 -82 34 -131 111 -132 204 0 97 70 188
    164 211 17 4 213 7 436 6 398 -2 406 -2 447 -24z m-267 -1643 c0 -1186 4
    -1115 -61 -1177 -43 -40 -77 -53 -143 -53 -68 0 -135 41 -168 102 l-23 43 -3
    1083 -2 1082 200 0 200 0 0 -1080z"/>
    <path d="M2434 4399 c-59 -22 -135 -85 -169 -139 -56 -89 -55 -63 -55 -1086
    l0 -941 -59 -7 c-127 -14 -256 -115 -301 -234 -30 -78 -30 -186 0 -265 46
    -121 176 -221 305 -234 l55 -6 0 -242 c0 -260 7 -309 55 -385 111 -176 365
    -214 520 -78 111 98 125 150 125 464 l0 241 59 7 c127 14 256 115 301 234 30
    78 30 186 0 264 -45 119 -174 220 -301 234 l-59 7 0 942 c0 930 0 944 -21
    1011 -18 57 -31 77 -82 129 -45 45 -78 68 -120 83 -75 29 -181 29 -253 1z
    m214 -148 c47 -24 77 -56 97 -103 13 -33 15 -152 15 -978 l0 -940 -200 0 -200
    0 0 943 c0 894 1 944 19 982 46 101 172 146 269 96z m343 -2182 c124 -38 190
    -190 131 -306 -26 -50 -84 -100 -132 -113 -46 -13 -814 -13 -860 0 -19 5 -52
    24 -73 41 -132 108 -95 317 65 376 46 16 815 18 869 2z m-231 -819 c0 -195 -3
    -248 -15 -278 -69 -163 -301 -163 -370 0 -12 30 -15 83 -15 278 l0 240 200 0
    200 0 0 -240z"/>
    <path d="M3990 4411 c-96 -31 -177 -102 -219 -190 l-26 -56 -3 -496 -3 -496
    -57 -7 c-167 -19 -308 -160 -328 -327 -23 -197 128 -385 325 -406 l61 -6 2
    -736 3 -736 27 -57 c31 -66 93 -129 163 -166 44 -24 61 -27 150 -27 89 0 106
    3 157 28 71 35 139 109 170 185 l23 57 3 726 3 726 56 6 c120 12 237 99 291
    215 23 49 27 70 27 152 0 88 -3 101 -33 162 -56 114 -159 186 -291 204 l-51 7
    0 209 0 210 -30 30 c-25 24 -36 29 -58 24 -59 -14 -62 -27 -62 -262 l0 -214
    -200 0 -200 0 0 474 c0 311 4 484 11 503 14 38 67 92 106 109 82 35 193 5 240
    -65 35 -51 43 -95 43 -228 0 -110 2 -125 20 -143 27 -27 81 -26 106 1 17 19
    19 37 19 173 -1 178 -16 232 -91 315 -66 73 -136 104 -243 108 -47 1 -97 -1
    -111 -6z m573 -1424 c65 -38 100 -93 105 -167 2 -32 -1 -75 -8 -95 -17 -51
    -85 -117 -136 -133 -30 -9 -154 -12 -445 -12 -370 0 -407 2 -444 19 -142 65
    -178 236 -72 348 70 73 68 73 537 70 l415 -2 48 -28z m-275 -1274 l-3 -718
    -23 -43 c-33 -62 -100 -102 -169 -102 -30 0 -68 6 -86 14 -39 17 -92 71 -106
    109 -8 19 -11 263 -11 743 l0 714 200 0 201 0 -3 -717z"/>
    </g>
</svg>
