<svg version="1.0" xmlns="http://www.w3.org/2000/svg" width="155.000000pt" height="34.000000pt" viewBox="0 0 1085.000000 234.000000" preserveAspectRatio="xMidYMid meet">
    <g transform="translate(0.000000,234.000000) scale(0.100000,-0.100000)" fill="inherit" stroke="none">
        <path d="M765 2086 c-220 -74 -421 -142 -447 -151 l-48 -17 0 -686 0 -687 187
        -83 c104 -45 191 -82 194 -82 4 0 10 63 14 140 l7 139 76 -38 c123 -62 126
        -68 131 -222 1 -71 7 -129 12 -129 4 0 73 -30 153 -66 l146 -66 347 155 c192
        86 398 178 458 205 l110 49 3 685 2 686 -392 131 c-337 111 -531 172 -549 171
        -2 0 -184 -61 -404 -134z m625 -156 c74 -22 221 -70 326 -106 l191 -66 6 -165
        c4 -92 7 -198 7 -237 l0 -71 -105 -53 -105 -52 0 115 c0 63 -2 115 -4 115 -5
        0 -150 -66 -223 -102 -70 -34 -80 -51 -85 -145 -5 -77 -19 -94 -128 -152 l-80
        -42 0 91 c0 89 -1 93 -29 119 -27 26 -216 116 -257 123 -18 3 -19 -6 -22 -109
        -1 -62 -5 -113 -8 -113 -2 0 -39 18 -82 39 -110 55 -116 64 -122 177 -7 113
        -11 119 -125 167 l-80 33 3 129 c2 71 7 132 13 135 15 10 517 177 608 203 97
        28 103 27 301 -33z m-842 -689 c117 -59 116 -57 120 -227 2 -79 1 -144 -3
        -144 -16 0 -167 85 -183 103 -14 16 -18 44 -20 163 -2 79 -1 144 2 144 4 0 41
        -18 84 -39z m1162 -353 c0 -46 -6 -94 -13 -108 -8 -16 -45 -42 -105 -73 l-92
        -48 0 76 c0 113 12 134 112 189 45 25 86 46 91 46 4 0 7 -37 7 -82z m192 -218
        c-17 -22 -164 -109 -185 -110 -5 0 -7 40 -5 90 4 106 10 116 128 179 l75 40 3
        -86 c2 -73 0 -91 -16 -113z"/>
        <path d="M2790 1165 l0 -645 158 0 c177 0 235 11 315 62 65 42 131 118 170
        197 31 64 32 70 32 191 0 121 -1 128 -33 192 -39 80 -104 154 -172 198 l-51
        33 20 21 c53 57 68 176 30 253 -26 53 -99 119 -148 133 -20 5 -100 10 -178 10
        l-143 0 0 -645z m274 525 c58 -13 97 -57 104 -115 11 -101 -55 -155 -191 -155
        l-77 0 0 140 0 140 63 0 c34 0 80 -5 101 -10z m97 -418 c73 -35 125 -87 160
        -157 27 -56 32 -75 32 -144 0 -94 -28 -164 -93 -235 -67 -72 -132 -98 -256
        -104 l-104 -5 0 338 0 337 108 -4 c85 -3 116 -8 153 -26z"/>
        <path d="M5110 1165 l0 -645 60 0 60 0 0 645 0 645 -60 0 -60 0 0 -645z"/>
        <path d="M6280 1547 c0 -145 -3 -266 -6 -270 -3 -3 -29 12 -57 34 -86 65 -144
        83 -272 83 -102 1 -114 -1 -175 -30 -206 -98 -312 -320 -255 -538 79 -301 453
        -429 702 -239 24 18 48 33 53 33 6 0 10 -22 10 -50 l0 -50 55 0 55 0 0 645 0
        645 -55 0 -55 0 0 -263z m-200 -295 c67 -29 135 -95 167 -160 24 -50 28 -69
        28 -147 0 -79 -4 -97 -28 -142 -33 -63 -96 -126 -157 -156 -37 -18 -62 -22
        -140 -22 -114 0 -168 22 -242 97 -66 68 -91 139 -86 243 6 114 61 208 155 266
        85 53 213 62 303 21z"/>
        <path d="M6680 1165 l0 -645 163 0 c189 0 234 10 326 71 188 125 254 386 150
        591 -26 51 -119 150 -168 180 -20 12 -37 22 -39 23 -1 2 11 25 28 52 77 123
        30 281 -102 347 -49 25 -61 26 -205 26 l-153 0 0 -645z m317 512 c89 -47 94
        -170 10 -231 -24 -17 -43 -21 -120 -21 l-92 0 -3 124 c-1 69 0 131 3 139 8 20
        158 12 202 -11z m68 -409 c70 -36 137 -111 165 -184 60 -159 -21 -349 -180
        -423 -47 -21 -70 -25 -155 -25 l-100 -1 -3 334 -2 333 112 -4 c97 -3 120 -8
        163 -30z"/>
        <path d="M7610 1165 l0 -645 60 0 60 0 0 645 0 645 -60 0 -60 0 0 -645z"/>
        <path d="M10137 1653 c-4 -3 -7 -260 -7 -570 l0 -563 60 0 60 0 0 203 c1 188
        2 204 21 226 25 30 7 54 155 -216 l115 -213 70 0 c39 0 68 3 66 8 -3 4 -73
        127 -156 275 l-152 267 101 125 c55 68 100 126 100 130 0 3 -31 5 -69 5 l-70
        0 -88 -107 -88 -107 -3 272 -2 272 -53 0 c-30 0 -57 -3 -60 -7z"/>
        <path d="M4687 1572 c-58 -60 -19 -152 63 -152 55 0 90 34 90 88 0 84 -96 124
        -153 64z"/>
        <path d="M8300 1385 c-190 -53 -330 -241 -330 -443 0 -214 176 -415 383 -440
        177 -22 332 43 433 181 64 86 88 173 82 292 -4 77 -11 104 -36 159 -43 93
        -126 177 -219 223 -64 32 -83 36 -165 39 -63 3 -111 -1 -148 -11z m252 -132
        c25 -12 68 -41 94 -65 170 -156 128 -436 -81 -538 -42 -21 -64 -25 -145 -25
        -80 0 -102 4 -140 24 -108 56 -180 159 -188 272 -11 154 78 289 228 343 60 22
        169 16 232 -11z"/>
        <path d="M9414 1390 c-96 -19 -213 -105 -274 -200 -66 -103 -87 -241 -55 -364
        44 -168 198 -304 368 -324 155 -19 284 24 389 131 32 33 57 64 55 70 -1 5 -27
        18 -56 29 l-52 20 -42 -41 c-68 -68 -116 -86 -227 -86 -112 0 -163 20 -234 91
        -71 71 -91 122 -91 234 0 80 4 102 23 138 36 67 98 129 161 159 48 24 68 28
        141 28 101 -1 155 -22 225 -86 l46 -42 54 17 c30 9 55 21 55 26 0 19 -101 117
        -151 147 -94 56 -219 76 -335 53z"/>
        <path d="M3720 1052 c0 -343 3 -357 94 -448 73 -73 127 -94 243 -94 137 0 237
        60 295 178 l33 67 3 287 4 288 -61 0 -61 0 0 -272 c0 -253 -1 -275 -21 -314
        -50 -105 -190 -148 -300 -93 -48 24 -95 79 -108 126 -6 22 -11 147 -11 296 l0
        257 -55 0 -55 0 0 -278z"/>
        <path d="M4690 925 l0 -405 60 0 60 0 0 405 0 405 -60 0 -60 0 0 -405z"/>
    </g>
</svg>
