<svg version="1.0" xmlns="http://www.w3.org/2000/svg" width="50.000000pt" height="50.000000pt" viewBox="0 0 512.000000 512.000000" preserveAspectRatio="xMidYMid meet">
    <g transform="translate(0.000000,512.000000) scale(0.100000,-0.100000)" fill="inherit" stroke="none">
    <path d="M2209 5093 c-35 -18 -64 -43 -84 -71 l-30 -44 -5 -218 c-4 -177 -8
    -222 -20 -234 -8 -8 -49 -24 -90 -36 -101 -30 -279 -103 -366 -151 -39 -21
    -84 -39 -99 -39 -23 0 -56 27 -169 140 -84 82 -156 145 -178 155 -53 22 -130
    19 -181 -6 -56 -28 -428 -400 -456 -456 -25 -51 -28 -128 -6 -181 10 -22 73
    -94 155 -178 113 -113 140 -146 140 -169 0 -15 -18 -60 -39 -99 -47 -84 -121
    -263 -150 -361 -34 -117 -16 -109 -269 -115 l-220 -5 -44 -30 c-28 -20 -53
    -49 -70 -84 l-28 -55 0 -296 0 -296 28 -55 c17 -35 42 -64 70 -84 l44 -30 218
    -5 c177 -4 222 -8 234 -20 8 -8 24 -49 36 -90 30 -101 103 -279 151 -366 21
    -39 39 -84 39 -99 0 -23 -27 -56 -140 -169 -82 -84 -145 -156 -155 -178 -22
    -53 -19 -130 6 -181 28 -56 400 -428 456 -456 51 -25 128 -28 181 -6 22 10 94
    73 178 155 113 113 146 140 169 140 15 0 60 -18 99 -39 87 -48 265 -121 366
    -151 41 -12 82 -28 90 -36 12 -12 16 -57 20 -234 l5 -218 30 -44 c20 -28 49
    -53 84 -71 l55 -27 296 0 296 0 55 28 c35 17 64 42 84 70 l30 44 5 218 c4 177
    8 222 20 233 8 8 49 24 90 37 102 30 280 103 366 151 39 21 84 39 99 39 23 0
    56 -27 169 -140 84 -82 156 -145 178 -155 53 -22 130 -19 181 6 56 28 428 400
    456 456 25 51 28 128 6 181 -10 22 -73 94 -155 178 -160 161 -160 161 -106
    258 48 87 120 259 151 362 15 49 33 96 41 104 12 12 57 16 234 20 l218 5 44
    30 c64 45 98 118 98 212 0 65 -3 77 -25 98 -31 32 -69 32 -100 0 -22 -21 -25
    -33 -25 -90 0 -105 -1 -105 -228 -105 -197 0 -238 -6 -293 -43 -50 -34 -71
    -72 -113 -203 -20 -66 -69 -184 -108 -264 -119 -242 -115 -264 89 -471 119
    -121 143 -150 143 -175 0 -25 -30 -59 -198 -227 -166 -166 -202 -197 -226
    -197 -25 0 -55 25 -175 143 -207 204 -229 208 -471 89 -80 -39 -198 -88 -264
    -108 -131 -42 -169 -63 -203 -113 -37 -55 -43 -96 -43 -293 0 -175 -1 -189
    -20 -208 -19 -19 -33 -20 -300 -20 -267 0 -281 1 -300 20 -19 19 -20 33 -20
    208 0 197 -6 238 -43 293 -34 50 -72 71 -203 113 -66 20 -184 69 -264 108
    -242 119 -264 115 -471 -89 -121 -119 -150 -143 -175 -143 -25 0 -59 30 -227
    198 -166 166 -197 202 -197 226 0 25 25 55 143 175 204 207 208 229 89 471
    -39 80 -88 198 -108 264 -42 131 -63 169 -113 203 -55 37 -96 43 -293 43 -175
    0 -189 1 -208 20 -19 19 -20 33 -20 300 0 267 1 281 20 300 19 19 33 20 207
    20 198 0 239 6 294 43 50 34 71 72 113 203 21 66 69 184 108 264 119 243 115
    264 -89 471 -119 121 -143 150 -143 175 0 25 30 59 198 227 166 166 202 197
    226 197 25 0 55 -25 175 -143 207 -204 228 -208 471 -89 80 39 198 87 264 108
    131 42 169 63 203 113 37 55 43 96 43 294 0 174 1 188 20 207 19 19 33 20 300
    20 267 0 281 -1 300 -20 19 -19 20 -33 20 -207 0 -198 6 -239 43 -294 34 -50
    72 -71 203 -113 66 -20 184 -69 264 -108 242 -119 264 -115 471 89 121 119
    150 143 175 143 25 0 59 -30 227 -198 166 -166 197 -202 197 -226 0 -25 -25
    -55 -143 -175 -204 -207 -208 -229 -89 -471 39 -80 88 -198 108 -264 42 -131
    63 -169 113 -203 55 -37 96 -43 294 -43 226 0 227 0 227 -105 0 -57 3 -69 25
    -90 31 -32 69 -32 100 0 22 21 25 33 25 98 0 94 -34 167 -98 212 l-44 30 -218
    5 c-177 4 -222 8 -234 20 -8 8 -24 49 -36 90 -30 101 -103 279 -151 366 -21
    39 -39 84 -39 99 0 23 27 56 140 169 82 84 145 156 155 178 22 53 19 130 -6
    181 -28 56 -400 428 -456 456 -51 25 -128 28 -181 6 -22 -10 -94 -73 -178
    -155 -113 -113 -146 -140 -169 -140 -15 0 -60 18 -99 39 -86 48 -264 121 -366
    151 -41 13 -82 29 -90 37 -12 11 -16 56 -20 233 l-5 218 -30 44 c-20 28 -49
    53 -84 71 l-55 27 -296 0 -296 0 -55 -27z"/>
    <path d="M2345 3953 c-16 -2 -74 -15 -127 -28 -536 -134 -936 -563 -1044
    -1120 -24 -122 -24 -367 -1 -490 75 -392 290 -715 621 -933 529 -349 1231
    -295 1705 131 232 209 385 483 447 802 27 135 24 377 -5 515 -59 279 -178 505
    -369 702 -191 197 -402 323 -648 388 -134 35 -192 41 -224 25 -45 -23 -53 -66
    -20 -108 16 -20 35 -28 93 -37 108 -18 250 -66 359 -122 342 -175 590 -505
    664 -885 24 -119 24 -347 0 -466 -49 -252 -165 -468 -350 -653 -247 -247 -538
    -368 -886 -368 -347 0 -639 121 -886 368 -247 247 -368 538 -368 886 0 348
    121 639 368 886 187 187 408 305 657 350 73 14 93 21 109 42 33 41 25 84 -21
    107 -15 8 -32 14 -36 14 -4 -1 -21 -4 -38 -6z"/>
    <path d="M3050 3111 c-64 -20 -112 -60 -350 -297 l-256 -254 -139 141 c-169
    169 -201 191 -299 197 -66 4 -76 1 -136 -30 -135 -70 -187 -226 -120 -359 33
    -66 510 -543 575 -574 71 -35 130 -41 201 -20 58 16 66 23 438 393 421 419
    426 426 426 543 0 81 -33 153 -93 204 -63 54 -171 79 -247 56z m125 -155 c41
    -18 65 -61 65 -118 l0 -42 -362 -363 c-250 -250 -373 -366 -395 -374 -68 -22
    -83 -12 -340 244 -133 132 -250 256 -259 275 -24 50 -13 99 31 140 37 34 86
    42 128 21 12 -6 101 -90 198 -185 157 -156 179 -174 209 -174 31 0 59 25 324
    289 160 159 298 291 306 294 27 10 60 7 95 -7z"/>
    </g>
</svg>
