<svg version="1.0" xmlns="http://www.w3.org/2000/svg" width="60.000000pt" height="60.000000pt" viewBox="0 0 500.000000 500.000000" preserveAspectRatio="xMidYMid meet">
<g transform="translate(0.000000,500.000000) scale(0.100000,-0.100000)" fill="inherit" stroke="none">
<path d="M1050 4564 c-92 -33 -175 -119 -199 -206 -9 -32 -11 -504 -9 -1878
l3 -1835 23 -47 c30 -60 89 -119 150 -149 l47 -24 671 -3 c422 -2 681 1 697 7
62 24 80 113 33 160 l-26 26 -671 5 -671 5 -29 33 -29 32 0 1811 0 1811 34 34
34 34 801 0 801 0 0 -363 c0 -470 7 -507 110 -600 85 -76 89 -77 537 -77 l393
0 0 -372 c0 -422 1 -430 71 -456 32 -12 41 -12 72 3 19 9 39 27 46 41 8 17 11
158 11 469 0 428 -1 446 -21 502 -20 54 -51 87 -488 526 -380 382 -476 473
-521 495 l-55 27 -885 2 c-783 2 -890 0 -930 -13z m2242 -641 c203 -203 368
-371 368 -375 0 -5 -152 -8 -338 -8 -296 0 -340 2 -361 16 -48 34 -51 60 -51
409 0 179 3 325 7 325 5 0 173 -165 375 -367z"/>
<path d="M3365 2280 c-169 -23 -314 -129 -389 -285 -48 -99 -56 -151 -56 -359
l0 -183 -40 -6 c-57 -7 -106 -42 -138 -95 l-27 -47 -3 -333 c-4 -372 1 -417
50 -476 64 -78 43 -76 674 -76 l560 0 53 26 c34 17 62 41 79 67 l27 41 3 372
c3 356 2 375 -17 412 -26 51 -71 89 -124 103 -23 6 -48 13 -54 15 -10 3 -13
51 -13 196 0 265 -25 349 -141 472 -111 119 -277 177 -444 156z m148 -205 c97
-25 160 -76 210 -169 20 -38 22 -57 25 -249 l3 -207 -313 2 -313 3 0 200 c0
197 0 201 27 250 47 89 126 153 215 174 56 13 83 13 146 -4z m447 -1140 l0
-315 -525 0 -525 0 0 315 0 315 525 0 525 0 0 -315z"/>
</g>
</svg>
