<svg version="1.0" xmlns="http://www.w3.org/2000/svg" width="50.000000pt" height="50.000000pt" viewBox="0 0 512.000000 512.000000" preserveAspectRatio="xMidYMid meet">
    <g transform="translate(0.000000,512.000000) scale(0.100000,-0.100000)" fill="inherit" stroke="none">
    <path d="M565 5108 c-133 -25 -287 -139 -352 -263 -68 -130 -63 55 -63 -2286
    0 -2085 0 -2118 20 -2180 52 -166 163 -284 330 -349 l65 -25 1583 -3 c1743 -3
    1645 -6 1774 59 133 67 250 225 277 373 7 40 11 357 11 945 l0 886 377 865
    378 865 0 105 c0 92 -3 112 -26 160 -56 117 -160 197 -291 221 -160 29 -329
    -57 -407 -207 l-30 -59 -1 206 c0 113 -5 232 -11 265 -36 198 -202 372 -401
    419 -54 13 -280 15 -1623 14 -928 -1 -1580 -5 -1610 -11z m3226 -158 c80 -25
    153 -79 201 -150 64 -94 68 -126 68 -556 l0 -381 -227 -521 -227 -522 -784 -2
    -784 -3 -19 -24 c-25 -30 -24 -62 2 -95 l20 -26 749 -2 748 -3 -46 -107 -47
    -108 -702 0 -702 0 -20 -26 c-26 -33 -27 -65 -2 -95 l19 -24 670 -5 669 -5
    -187 -430 -188 -430 -482 -5 -482 -5 -19 -24 c-26 -32 -24 -67 6 -96 l24 -25
    441 0 c423 0 441 -1 436 -18 -4 -10 -24 -59 -46 -108 l-39 -89 -400 -3 -400
    -2 -20 -26 c-34 -43 -26 -86 20 -109 23 -12 91 -15 380 -15 311 0 350 -2 345
    -15 -37 -98 -41 -139 -41 -443 l1 -302 -1071 2 -1070 3 -65 31 c-80 38 -149
    105 -187 182 l-28 57 0 2135 0 2135 28 57 c49 100 151 183 254 207 21 5 729 9
    1589 10 1521 1 1553 1 1615 -19z m863 -624 c67 -20 110 -57 141 -121 42 -84
    34 -146 -39 -312 -32 -73 -64 -133 -70 -133 -12 0 -406 169 -419 180 -13 11
    112 282 146 318 69 73 149 95 241 68z m-237 -617 c114 -50 210 -93 212 -95 5
    -5 -60 -153 -71 -160 -8 -5 -403 160 -422 177 -10 9 53 169 66 169 3 0 100
    -41 215 -91z m-272 -249 c42 -19 65 -35 62 -43 -3 -6 -152 -349 -331 -760
    -179 -411 -326 -754 -326 -761 0 -7 9 -25 21 -40 23 -29 72 -36 102 -13 9 6
    165 352 346 767 252 577 333 754 345 752 9 -2 43 -15 76 -30 l60 -27 -571
    -1310 c-314 -720 -573 -1312 -575 -1314 -6 -6 -144 54 -144 63 0 5 79 190 175
    411 96 221 175 414 175 429 0 56 -85 90 -123 49 -8 -10 -95 -200 -191 -422
    -97 -223 -178 -406 -180 -408 -3 -3 -136 54 -144 62 -2 1 247 578 554 1281
    306 704 563 1294 571 1312 7 17 17 32 22 32 5 0 39 -14 76 -30z m-87 -2425
    c-3 -565 -4 -592 -23 -637 -49 -115 -133 -193 -244 -228 -58 -18 -90 -20 -390
    -20 l-326 1 105 96 c155 143 213 203 252 262 20 29 168 356 329 727 l294 674
    3 -142 c1 -79 1 -408 0 -733z m-976 -407 c138 -60 185 -85 180 -94 -4 -8 -91
    -90 -192 -183 l-185 -169 -6 57 c-9 76 -11 456 -2 464 10 11 6 12 205 -75z"/>
    <path d="M739 4472 c-39 -20 -62 -41 -84 -77 -28 -46 -30 -55 -33 -168 -4
    -112 -2 -120 19 -143 31 -34 81 -33 108 2 18 23 21 41 21 124 0 151 -30 140
    401 140 l356 0 21 -23 c22 -23 22 -28 22 -378 l0 -356 -23 -21 c-23 -22 -28
    -22 -380 -22 -432 0 -397 -13 -397 145 0 99 -2 107 -25 130 -13 14 -36 25 -50
    25 -14 0 -37 -11 -50 -25 -23 -23 -25 -31 -25 -131 0 -59 6 -125 12 -148 16
    -53 81 -118 134 -134 30 -8 147 -12 411 -12 l369 0 55 28 c40 20 61 39 84 76
    l30 49 0 397 0 397 -30 48 c-22 36 -45 57 -84 77 l-53 28 -378 0 -378 0 -53
    -28z"/>
    <path d="M2045 4198 c-49 -26 -58 -69 -24 -112 l20 -26 824 0 c770 0 824 1
    844 18 33 26 31 79 -3 109 l-27 23 -807 0 c-565 -1 -813 -4 -827 -12z"/>
    <path d="M1221 4063 c-33 -38 -69 -79 -80 -93 l-19 -25 -29 26 c-48 46 -95 46
    -130 0 -31 -40 -11 -77 78 -151 46 -38 68 -50 94 -50 31 0 42 10 133 118 135
    160 141 174 97 217 -43 44 -75 35 -144 -42z"/>
    <path d="M2025 3815 c-14 -13 -25 -36 -25 -50 0 -14 11 -37 25 -50 l24 -25
    815 0 815 0 25 23 c36 32 39 74 6 107 -20 20 -33 20 -840 20 l-821 0 -24 -25z"/>
    <path d="M745 3086 c-59 -27 -77 -46 -104 -106 -20 -43 -21 -64 -21 -420 0
    -356 1 -377 21 -420 27 -60 45 -79 104 -106 50 -24 52 -24 426 -24 l377 0 53
    28 c39 20 62 41 84 77 l30 48 0 397 0 397 -30 48 c-22 36 -45 57 -84 77 l-53
    28 -377 0 c-374 0 -376 0 -426 -24z m802 -148 l23 -21 0 -356 c0 -350 0 -355
    -22 -378 l-21 -23 -359 0 c-345 0 -359 1 -378 20 -19 19 -20 33 -20 380 0 347
    1 361 20 380 19 19 33 20 377 20 352 0 357 0 380 -22z"/>
    <path d="M1274 2733 c-6 -5 -39 -42 -74 -83 -35 -41 -67 -79 -72 -84 -5 -6
    -20 2 -38 19 -39 37 -94 40 -121 6 -35 -43 -25 -70 49 -139 69 -65 96 -78 135
    -68 28 7 224 237 233 273 10 37 -24 77 -67 81 -19 1 -39 -1 -45 -5z"/>
    <path d="M762 1709 c-49 -14 -116 -86 -131 -139 -9 -33 -11 -145 -9 -421 l3
    -376 30 -48 c22 -36 45 -57 84 -77 l53 -28 377 0 c419 0 421 1 488 70 63 65
    64 74 61 496 l-3 381 -30 49 c-23 37 -44 56 -84 77 l-55 27 -375 -1 c-207 0
    -391 -5 -409 -10z m788 -161 c19 -21 20 -33 20 -377 0 -350 0 -355 -22 -378
    l-21 -23 -356 0 c-350 0 -355 0 -378 22 l-23 21 0 359 c0 345 1 359 20 378 19
    19 33 20 380 20 357 0 359 0 380 -22z"/>
    <path d="M1269 1338 c-12 -9 -115 -129 -144 -166 -1 -1 -19 11 -40 28 -46 36
    -78 38 -110 5 -43 -42 -34 -71 43 -143 111 -104 126 -101 257 55 117 139 128
    161 99 200 -24 32 -78 42 -105 21z"/>
    </g>
</svg>
