<svg width="36" height="40" viewBox="0 0 36 40" fill="none" xmlns="http://www.w3.org/2000/svg">
    <path d="M8.75 2.95L0.9271 5.61899C0.522179 5.75714 0.25 6.13758 0.25 6.56542V19V31.4975C0.25 31.894 0.484305 32.2531 0.847261 32.4128L4 33.8L7.75 35.45L12 37.35L15 38.65L17.5925 39.8166C17.8518 39.9333 18.1485 39.9341 18.4085 39.8187L26.9 36.05L35.1576 32.3644C35.5179 32.2036 35.75 31.8459 35.75 31.4512V19V6.56816C35.75 6.13899 35.4762 5.75768 35.0695 5.62057L27 2.9C22.4557 1.38523 18.494 0.139345 17.8302 0.0533453C17.7756 0.0462676 17.7236 0.0510689 17.6698 0.0627011C17.0322 0.200457 13.1798 1.44198 8.75 2.95ZM25.25 6.65L31.094 8.62796C31.4886 8.76153 31.7591 9.12581 31.7728 9.54222L31.9 13.4L32.0277 17.2747C32.0412 17.6827 31.8053 18.0579 31.4318 18.2226L24 21.5L18.3563 23.8516C18.127 23.9471 17.8704 23.9539 17.6364 23.8706L4.61826 19.2378C4.21799 19.0954 3.95142 18.7156 3.95355 18.2907L3.99638 9.72361C3.99854 9.2918 4.27762 8.91015 4.68846 8.77719L17.4821 4.63672C17.6573 4.58001 17.8447 4.57276 18.0235 4.61691C18.9764 4.85221 22.2555 5.67995 25.25 6.65Z" fill="inherit"/>
</svg>